<svg fill="#000000" xmlns="http://www.w3.org/2000/svg"  viewBox="0 0 50 50" width="50px" height="50px"><path d="M 25 11 C 11.15951 11 0 23.142126 0 38 L 2 38 C 2 24.139874 12.33049 13 25 13 C 37.66951 13 48 24.139874 48 38 L 50 38 C 50 23.142126 38.84049 11 25 11 z M 5 30 L 5 38 L 9 38 L 9 35 L 11 37 L 13 35 L 13 38 L 17 38 L 17 30 L 13 30 L 11 33 L 9 30 L 5 30 z M 23 30 L 18 38 L 22 38 L 22.681641 37 L 27.330078 37 L 28 38 L 32 38 L 27 30 L 23 30 z M 33 30 L 33 38 L 37 38 L 37 35 L 41 38 L 45 38 L 45 30 L 41 30 L 41 33 L 37 30 L 33 30 z M 25 33.265625 L 26.078125 35 L 23.919922 35 L 25 33.265625 z"/></svg>